<?xml version="1.0" encoding="UTF-8"?>
<svg id="Layer_1" data-name="Layer 1" xmlns="http://www.w3.org/2000/svg" viewBox="0 0 1900.32 926.1">
  <defs>
    <style>
      .cls-1 {
        fill: #4e0707;
      }
    </style>
  </defs>
  <path class="cls-1" d="m655.03,879.14c-1.97.12-3.94.35-5.92.35-51.17.02-102.35.04-153.52-.05-2.2,0-4.38-.91-6.57-1.39.15-.83.31-1.65.46-2.48,1.97-.11,3.94-.33,5.93-.33,51.17-.02,102.35-.04,153.52.05,2.21,0,4.43.91,6.64,1.38-.17.82-.35,1.65-.52,2.47h-.01Z"/>
  <path class="cls-1" d="m1368.36,878.01c-2.18.5-4.35,1.41-6.54,1.43-39.89.09-79.79.06-119.68.06h-40.7c-.19-.79-.37-1.58-.55-2.37,2.46-.63,4.91-1.82,7.37-1.84,48.74-.11,97.46-.07,146.2-.07h13.4c.17.93.33,1.86.51,2.79h-.01Z"/>
  <path d="m154.51,749.63c-1.93-2.61-3.28-3.88-3.97-5.44-23.62-53.72-47.17-107.46-70.74-161.21-13.31-30.35-26.76-60.64-39.85-91.08-7.27-16.9-18.68-27.85-37.89-28.96-.91-.05-1.76-1.23-2.06-2.92h89.62c.17.4.34.8.51,1.2-1.06.6-2.1,1.72-3.17,1.74-14.61.27-20.27,13.45-15.39,25.63,27.71,69.19,55.26,138.45,82.88,207.68.4,1,1.01,1.91,2.08,3.88,2.38-5.39,4.53-10.02,6.5-14.74,31.2-74.66,62.3-149.36,93.62-223.96,9.17-21.85,20.73-42.3,36.53-60.27,17.86-20.31,40.04-32.87,66.41-37.71,10.47-1.92,21.31-1.89,31.99-2.56.94-.06,1.97,1.3,2.96,2-1,.49-1.97,1.32-3,1.41-34.49,3.12-61.61,18.49-81.45,47.21-13.94,20.17-24.1,42.19-34.22,64.31-34.06,74.48-68.27,148.89-102.15,223.45-6.49,14.29-11.75,29.15-17.53,43.76-.59,1.49-.81,3.12-1.69,6.59h0Z"/>
  <path d="m1396.38,690.29c-1.32,3.61-2.27,7.42-4.03,10.8-10.76,20.64-30.26,29.13-52.62,27.59-16.31-1.12-31.56-5.26-44.63-15.19-19.05-14.48-29.51-33.93-32.12-57.77-3.02-27.63,3.39-52.68,20.3-74.75,16.2-21.15,38.22-33.6,63.94-38.66,31.34-6.17,61.92-3.33,90.32,12.68,30.23,17.04,48.73,42.84,52.31,77.25,6.27,60.32-30.39,102.39-83.51,113.58-.98.21-1.89.75-3.44,1.39,15.86,4.22,31.05,8.06,46.13,12.31,27.99,7.9,55.8,16.49,83.91,23.94,24.35,6.45,49.35,9.45,74.54,8.11,21.93-1.16,43.79-3.8,63.74-14.13,5.36-2.77,10.21-6.52,15.29-9.81.35.41.7.81,1.05,1.22-5.08,4.45-9.8,9.42-15.3,13.27-18.01,12.58-38.41,19.25-59.91,22.84-41.27,6.9-80.28-1.42-118.64-16.5-33.65-13.23-67.81-25.17-101.79-37.52-4.9-1.78-10.12-2.67-15.15-4.1-1.1-.31-2.05-1.16-3.89-2.24,9.89-1.17,18.52-1.8,27.01-3.27,34.85-6.03,61.91-34.57,67.34-69.67,3.78-24.43,3.11-48.24-7.89-70.76-13.42-27.5-34.34-46.36-65.19-51.94-48.48-8.76-96.77,17.84-107.99,70.53-5.61,26.33-3.3,51.72,12.11,74.67,18.9,28.14,54.97,35.33,81.2,16.31,3.47-2.51,6.42-5.96,8.99-9.43,2.51-3.39,4.23-7.38,6.3-11.1l1.61.37v-.02Z"/>
  <path d="m590.75,708.36v-139.36c0-14.59-5.81-20.7-20.45-21.63-.79-.05-1.57-.38-2.25-1.61h56.65c.04.39.08.78.12,1.17-1.45.16-2.9.42-4.36.45-10.61.26-17.53,7.33-17.53,18.05,0,51.31-.05,102.63.12,153.94,0,2.77,1.13,6.08,2.88,8.21,12.25,14.95,24.21,30.21,39.9,41.9,12.9,9.61,27.23,15.04,43.5,14.58,2.51-.07,5.02-.57,7.53-.74.32-.02.7.78,1.48,1.71-10.69,3.44-21.22,5.58-32.19,4.18-28.3-3.61-48.13-21.12-66.3-40.99-26.6-29.1-52.96-58.42-79.37-87.69-21.76-24.11-43.44-48.29-65.17-72.43-1.81-2.01-3.73-3.91-6.97-5.62v137.53c0,12.56,6.66,19.48,19.3,20.18,1.18.07,2.36.34,3.48,1.59h-57.65l-.12-1.11c1.44-.16,2.88-.4,4.32-.48,11.37-.68,18.48-7.99,18.51-19.35.06-27.21.02-54.42.02-81.63,0-21.37-.13-42.73.09-64.1.05-5.17-1.04-9.33-4.33-13.49-10.77-13.62-21.51-27.21-35.84-37.37-13.45-9.54-28.11-13.95-44.64-10.18-1.18.27-2.51-.13-3.78-.81,10.88-5.51,22.28-7.35,34.24-6,25.27,2.84,42.3,19.19,58.28,36.49,29.47,31.91,58.3,64.4,87.39,96.66,19.43,21.56,38.85,43.12,58.2,64.75,1.17,1.31,1.74,3.16,2.59,4.75.79-.51,1.58-1.03,2.36-1.54h-.01Z"/>
  <path d="m711.91,610.02c-.51-1.36-1.39-2.69-1.48-4.07-1.99-29.29,15.77-54.48,44.45-61.75,54.41-13.78,108.06,14.14,120.69,72.79,6.47,30.06,2.81,59-15.99,84.58-16.44,22.36-38.69,36.3-65.68,41.61-27.54,5.42-55.05,4.49-81.24-7.04-32.97-14.52-55.04-38.82-61.03-74.78-6.09-36.58,1.56-69.91,30.37-95.8,6.56-5.9,14.35-10.43,21.57-15.59.45.54.9,1.07,1.35,1.61-.47.79-.74,1.85-1.43,2.35-16.59,12.09-24.29,29.37-28.6,48.65-5.99,26.79-6.25,53.51,3.89,79.28,12.54,31.88,36.31,50.4,70.48,55.18,24.45,3.42,47.53-.17,68.11-14.42,21.8-15.1,33.77-36.34,37.88-62.38,3.32-21.05,2.19-41.69-5.68-61.54-9.3-23.46-24.56-41.29-50.21-47.36-24.97-5.91-48.66-2.93-68.67,14.37-13.03,11.26-18.96,26.11-18.77,44.32h-.01Z"/>
  <path d="m1523.33,545.62h56.5c.05.45.1.9.15,1.36-1.63.14-3.25.36-4.88.4-8.47.21-14.6,5.79-14.64,14.35-.14,37.26-.58,74.53.2,111.78.43,20.63,7.31,39.26,24.43,52.57,12.23,9.51,26.25,12.4,41.51,11.32,14.47-1.02,27.36-5.6,38.03-15.47,13.28-12.3,19.29-28.1,19.5-45.8.4-34.7-.22-69.41.29-104.11.25-17.05,3.88-33.61,14.38-47.69,12.45-16.7,29.5-25.4,50.11-27.38,5.03-.48,10.06-.86,15.09-1.29.11.58.23,1.16.34,1.75-2.55.57-5.07,1.49-7.64,1.64-29.7,1.74-51.43,23.12-56.92,52.69-1.75,9.41-2.39,19.12-2.49,28.71-.31,29.4,0,58.81-.17,88.22-.07,11.65-.84,23.32-5.53,34.21-10.33,24.02-28.73,37.85-54.43,41.78-19.97,3.06-39.62,1.9-57.8-7.92-20.35-11-32.55-27.96-35.5-51.12-.66-5.22-1.01-10.51-1.02-15.76-.09-34.89-.04-69.77-.05-104.66,0-13.07-3.96-17.19-17.04-17.83-.84-.04-1.68-.31-2.51-.48.03-.42.05-.85.08-1.27h.01Z"/>
  <path d="m1139.59,640.52c18.15,0,35.86.16,53.56-.08,7.35-.1,13.05-6.08,13.97-13.63.19-1.54.28-3.08,1.62-4.59v44.25c-.32.07-.65.14-.97.2-.2-1.38-.47-2.76-.6-4.15-.7-7.52-5.73-13.92-12.74-14.08-18.21-.43-36.43-.14-54.92-.14v84.67c.52.22,1,.59,1.48.59,20.64.03,41.29.26,61.93-.03,21.98-.31,36.14-12.15,44.82-31.56.89-1.98,1.99-3.86,2.99-5.79.48.22.96.44,1.44.66-.99,2.78-1.97,5.56-2.96,8.34-3.86,10.9-7.61,21.85-11.7,32.67-.57,1.51-2.78,3.44-4.25,3.44-43.66.18-87.33.15-130.99.12-.79,0-1.59-.31-3.85-.79,2.03-.85,2.7-1.34,3.4-1.39,12.81-.93,19.63-8.14,19.66-21.17.06-34.69.02-69.38.02-104.07v-46.01c0-14.14-5.29-19.99-19.53-21.69-.75-.09-1.46-.51-2.1-1.26,29.82-2.72,59.97,2.64,89.31-5.25v33.92c-.42.02-.84.05-1.26.07-.15-1.47-.38-2.93-.42-4.41-.25-10.05-6.75-16.49-16.9-16.55-10.21-.06-20.42-.01-31-.01v87.71h-.01Z"/>
  <path d="m1748.15,544.52c29.63-2.13,59.66,3.1,89.29-4.76v33.92c-.46.05-.92.1-1.38.15-.15-1.77-.38-3.53-.43-5.3-.23-8.68-6.91-15.57-15.55-15.67-10.73-.12-21.46-.03-32.45-.03v87.7h5.73c14.62,0,29.25-.43,43.84.14,10.52.41,18.52-6.36,18.16-16.36-.03-.73.46-1.47,1.66-2.06v44.2c-.34.08-.68.17-1.03.25-.24-1.49-.54-2.98-.7-4.48-.81-7.82-6.1-13.75-13.57-13.87-17.87-.28-35.75-.09-54-.09v85.4c8.17,0,16.16.11,24.14-.02,14.95-.25,29.9-.48,44.84-1.01,15.15-.54,25.92-8.52,33.68-20.97,3.09-4.95,5.7-10.21,8.53-15.33.47.2.94.4,1.41.6-5.26,14.74-10.51,29.49-15.76,44.2h-136.44c-.08-.28-.16-.55-.23-.83.79-.36,1.55-.99,2.37-1.05,11.98-.91,19.27-7.95,19.31-19.84.15-51.67.13-103.34,0-155.01-.03-10.14-6.82-16.72-17.58-18.02-1.32-.16-2.64-.34-3.97-.52.04-.45.08-.9.12-1.35h0Z"/>
  <path d="m1076.06,539.73v34.56c-.42.08-.84.15-1.25.23-.31-1.73-.81-3.46-.9-5.2-.54-10.44-9.42-17.01-18.44-16.69-17.13.61-34.29.18-52.17.18v164.55c0,15.09,5.19,20.94,20.28,22.9.49.06.94.42,1.38,1.48h-60.94c-.06-.28-.12-.57-.18-.85,2.65-.56,5.32-1.05,7.96-1.69,8.02-1.95,13.85-9.08,13.86-17.38.05-55.52.02-111.03,0-166.55,0-.54-.12-1.07-.24-2.03-1.32-.14-2.7-.41-4.08-.41-20.28,0-40.57-.06-60.85.08-14.31.1-27.83,9.38-31.2,22.76-1.41,5.6.22,12.01.72,18.03.17,2.01,1.13,3.96,1.91,6.54-6.67-4.1-11.47-15.72-10.14-23.22,3.26-18.42,17.39-31.29,36.52-31.72,32.14-.72,64.29-.62,96.43-.94,20.5-.2,41.13,1.47,61.33-4.63h0Z"/>
  <path d="m348.5,551.42c-14.45,1.29-28.16,1.69-41.57,3.91-16.23,2.69-22.88,18.06-14.13,30.62,4,5.75,10.19,7.12,16.7,7.78-3.92,3.23-14.4,2.39-19.89-1.54-12.95-9.26-12.91-29.95.82-37.98,6.7-3.91,14.68-6.65,22.38-7.63,15.87-2.02,31.95-2.35,47.92-3.68,7.4-.62,14.72-2.01,22.1-2.95,1.79-.23,3.62-.03,5.44-.03l.07,1.37c-1.1.28-2.2.53-3.29.83-12.73,3.56-18.76,10.88-18.81,24.6-.19,51.31-.17,102.63-.01,153.94.03,10.73,6.92,17.83,17.69,19.46,1.32.2,2.64.37,3.87,1.73h-60.93c-.08-.24-.17-.48-.25-.72.97-.32,1.92-.88,2.9-.93,12.11-.58,19.29-10.44,19.2-21.32-.46-53.32-.21-106.64-.21-159.96v-7.51h0Z"/>
  <path class="cls-1" d="m979.78,884c8.89,3.3,14.95,7.9,15.46,17.08.72,13.09-7.22,22.08-21.7,22.89-14.18.78-28.43.17-43.13.17v-78.51c13.91,0,27.7-.76,41.35.27,8.73.67,16.82,5.19,18.97,14.75,2.13,9.53-.58,17.89-10.95,23.35h.01Zm-42.62,2.82v32.3c13.25-.6,26.1-.71,38.84-1.94,7.5-.73,12.11-7.02,12.18-14.08.07-7.03-4.49-13.32-12.05-14.1-12.74-1.3-25.6-1.5-38.98-2.18Zm.04-36.18v32.19c12.12-.73,23.84-.84,35.37-2.34,7.54-.98,11.87-7.64,11.46-14.56-.42-7.1-5.2-12.93-12.67-13.62-11.18-1.03-22.43-1.14-34.16-1.66Z"/>
  <path class="cls-1" d="m833.35,843.59c3.82,2.31,6.62,3.16,8.15,5.06,16.14,19.97,32.07,40.1,49.56,60.01v-62.72c3.09-.19,4.97-.3,7.24-.45v80.61c-3.7-2.48-6.74-3.66-8.51-5.86-15.7-19.49-31.19-39.16-46.74-58.76-.51-.65-1.19-1.14-2.77-2.6v64.85c-3.65.29-7,2.03-6.97-3.55.09-24.66.04-49.33.04-76.61h0Z"/>
  <path class="cls-1" d="m1106.78,899.23v24.54c-2.25.11-4.12.2-6.4.31v-79.27c14.13.72,28.33.53,42.24,2.47,10.28,1.44,17.79,11.36,18.61,20.72,1.15,13.25-3.24,21.86-14.01,27.39-.98.51-1.98.97-3.83,1.87,6.34,8.92,12.47,17.54,18.67,26.26-5.15,1.8-8.56.2-11.02-4.06-.78-1.35-2.22-2.39-2.77-3.81-7.67-20-23.95-18.64-41.49-16.42h0Zm.31-6.29c8.4,0,16.06.1,23.72-.06,2.44-.05,4.88-.72,7.29-1.23,9.66-2.03,15.41-8.71,15.79-18.24.4-10.23-3.87-18-13.51-19.72-10.84-1.94-22.11-1.58-33.28-2.21v41.44h-.01Z"/>
  <path class="cls-1" d="m684.73,827.21c6.04-2.17,8.39.06,10.58,5.14,11.02,25.5,22.53,50.81,33.89,76.17.73,1.63,1.79,3.09,3.11,5.36,11.75-26.41,23.11-52.21,34.73-77.89,2.08-4.59,2.52-11.92,11.71-8.94-5.35,12.12-10.66,24.29-16.06,36.42-8.13,18.22-16.55,36.32-24.35,54.68-2.17,5.11-4.79,7.24-10.62,5.51-14.22-31.88-28.59-64.13-42.99-96.43h0Z"/>
  <path class="cls-1" d="m1003.66,923.57c7.08-15.28,14.15-30.5,21.19-45.76,4.4-9.56,8.6-19.21,13.21-28.68.79-1.63,3.11-3.29,4.86-3.45,1.74-.17,4.65,1.05,5.33,2.48,11.96,25.06,23.64,50.23,35.42,75.43-5.48,1.66-8.89.1-9.99-5.04-2.98-14-11.67-18.28-25.32-16.35-7.55,1.07-15.39-.09-23.06.37-2.1.12-4.75,2-5.94,3.85-2.41,3.75-4.38,7.88-5.79,12.09-1.66,4.97-4.4,6.9-9.91,5.04h0Zm20.36-27.59h39.09c-6.66-14.56-12.89-28.23-19.56-42.82-6.74,14.76-12.95,28.41-19.53,42.82h0Z"/>
  <path class="cls-1" d="m794.38,845.72h5.99v78.13h-5.99v-78.13Z"/>
  <path d="m489.02,525.64c13.45-6.23,26.79-12.69,40.35-18.66,65.58-28.88,133.56-50.57,203.59-65.5,32.09-6.84,64.56-12.12,97.05-16.75,27.9-3.98,56.02-7.08,84.14-8.71,40.8-2.36,81.7-3.81,122.57-4.18,28.45-.26,56.95,1.45,85.38,3.18,24.35,1.48,48.71,3.59,72.93,6.55,29.74,3.64,59.44,7.85,88.96,12.94,27.66,4.77,55.07,11.01,82.59,16.63.49.1.92.5,1.79.99-.98,1.17-1.77,2.28-2.73,3.23-10.86,10.84-21.79,21.61-32.57,32.52-2.03,2.06-3.65,2.55-6.62,1.7-40.33-11.47-81.13-20.9-122.7-26.55-27.73-3.77-55.56-6.95-83.4-9.86-54.06-5.64-108.32-5.19-162.54-4.03-30.07.64-60.14,2.84-90.12,5.4-29.17,2.5-58.32,5.71-87.31,9.81-32.71,4.62-65.29,10.18-97.81,16.01-62.3,11.17-123.78,25.92-184.44,44.04-2.87.86-5.77,1.65-8.65,2.47-.15-.4-.31-.81-.46-1.21v-.02Z"/>
  <path d="m556.29,486.76c0-18.37-.08-36.75.16-55.12.02-1.38,2.13-3.63,3.61-3.96,25.93-5.75,51.91-11.26,77.88-16.82,3.46-.74,4.74-2.47,4.72-6.36-.21-30.14-.04-60.27-.2-90.41-.02-3.46,1.06-5.23,4.08-6.72,26.53-13.12,52.98-26.39,79.51-39.51,2.58-1.28,3.86-2.64,3.76-5.73-.25-7.46-.08-14.93-.08-23.04h-36.55c-.2-1.97-.45-3.34-.46-4.72-.02-21.74.06-43.47-.09-65.21-.02-3.4.93-5,4.21-6.4,9.67-4.1,19.03-8.93,28.65-13.14,3.32-1.46,4.42-3.25,4.33-6.88-.28-10.59-.03-21.19-.15-31.78-.03-2.72.59-4.11,3.52-5.05,20.26-6.56,40.44-13.4,60.67-20.07,1.33-.44,2.89-.22,4.35-.23,15.7-.01,31.41,0,47.56,0,1.39-11.02,2.72-21.78,4.1-32.53,1.62-12.6,3.36-25.18,4.89-37.79.38-3.09,2.18-3.63,4.77-4.67C879.97,2.38,901.25-.43,923.06.05c14.06.31,27.76,2.91,40.79,8.25,2.28.93,4.54,3.15,5.7,5.36,11.86,22.63,23.61,45.33,35.05,68.18,1.68,3.36,3.6,3.81,6.74,3.81,33.63-.07,67.26-.04,100.89-.04h6.61v49.14h38.1v78.89h-37.49v11.33c5.25-.89,10.45-1.86,15.69-2.65,16.65-2.51,33.3-5.09,49.98-7.38,27.19-3.74,54.59-4.34,81.91-3.01,21.15,1.02,42.25,3.54,62.3,11.46,17.33,6.84,24.59,20.57,26.51,37.89.8,7.18,2.36,15.03.36,21.6-4.77,15.66-10.2,31.39-17.64,45.92-11.71,22.85-25.59,44.58-37.95,67.12-5.8,10.57-10.18,21.93-15.33,33.22-.09-.02-1.12-.29-2.1-.54,0-.5-.07-.84.01-1.13,7.69-27.69,25.1-50.34,38.59-75.05,8.82-16.15,16.05-33.17,24.01-49.79,2.1-4.39,1.25-8.18-1.43-12.19-9.18-13.74-21.88-23.01-37.41-27.65-8.76-2.62-18.23-3.4-27.44-3.89-16.18-.86-32.43-1.55-48.6-1.04-15.97.51-31.97,2.04-47.82,4.14-21.56,2.85-43.12,6.06-64.46,10.26-17.93,3.53-35.74,8.04-53.24,13.3-23.07,6.93-45.97,14.52-68.62,22.71-39.78,14.39-78.2,31.94-115.57,51.78-32.21,17.1-64.89,33.21-99.14,45.84-26.17,9.65-52.22,19.96-79.01,27.54-30.94,8.75-62.54,15.26-94.03,21.88-14.87,3.12-30.15,4.35-45.27,6.13-3.25.38-4.47,1.29-4.34,4.61.22,5.47.18,10.96-.01,16.43-.06,1.66-.98,3.29-1.51,4.94-.54-.21-1.07-.43-1.61-.64v-.02Zm596.91-347.98h-394.58v70.02h394.58v-70.02Zm-593.48,306.84c11.22-1.37,21.87-2.5,32.46-3.98,33.14-4.64,65.59-12.38,97.75-21.52,65.04-18.5,126.69-45.11,186.14-77.07,43.15-23.19,88.06-42.51,134.26-58.59,47.77-16.63,96.57-29.47,146.72-37.01,27.24-4.1,54.57-7,82.06-7.1,17.45-.06,34.98,1.35,52.33,3.33,9.73,1.11,19.64,3.65,28.63,7.5,11.2,4.8,21.53,11.63,31.95,17.42,1.62-19.63-7.81-37.49-28.94-43.8-17.68-5.28-35.73-7.61-54.09-9.04-25.07-1.96-50.03-.75-74.87,1.73-21.64,2.16-43.35,5.08-64.56,9.76-31.47,6.95-62.89,14.6-93.67,24.12-27.7,8.56-54.87,19.18-81.61,30.47-26.04,10.99-51.33,23.82-76.8,36.13-27.95,13.51-55.46,27.95-83.65,40.93-42.27,19.45-86.03,35.12-130.62,48.4-16.53,4.92-33.22,9.38-50,13.34-17.62,4.16-35.45,7.48-53.49,11.23v13.76h0Zm85.99-37.61c1.81-.19,2.91-.15,3.91-.45,46.86-13.63,92.71-30.03,137.48-49.47,3.42-1.49,4.79-3.34,4.77-7.31-.18-43.63-.11-87.26-.12-130.89,0-1.92-.2-3.84-.32-6.17h-36.52v-73.11c-1.03.1-1.61,0-2.06.21-17.79,8.24-35.6,16.44-53.27,24.92-1.4.67-2.57,3.32-2.61,5.08-.23,11.13-.12,22.27-.12,33.4v30.73h37.17c0,9.86-.23,18.98.11,28.08.14,3.71-1.18,5.45-4.35,7.01-26.53,13.06-52.96,26.33-79.49,39.4-3.35,1.65-4.8,3.57-4.68,7.51.32,10.94.11,21.9.11,32.86v58.2Zm150.01-194.85v140.94c8.37-3.86,16.51-7.37,24.42-11.32,33.3-16.64,66.36-33.78,99.84-50.05,37.78-18.37,77.02-33.17,117.05-45.89,3.22-1.02,4.34-2.38,4.21-5.67-.24-6.12-.07-12.26-.07-18.28h52.59c.23,2.65.43,4.93.67,7.67,6.29-1.32,12.14-2.43,17.9-3.89,1.03-.26,2.32-1.89,2.42-2.99.32-3.38.11-6.82.11-10.52h-319.14Zm206.1-127.84c-.34-1-.48-1.68-.78-2.27-10.78-21-22.05-41.77-32.13-63.1-3.92-8.29-10.57-10.21-17.86-12.21-14.91-4.09-30.05-4.76-45.46-3.54-15.17,1.19-29.89,3.87-43.93,9.75-1.54.64-3.25,2.68-3.5,4.29-1.48,9.5-2.56,19.06-3.77,28.61-1.62,12.74-3.23,25.48-4.88,38.47h152.31Zm348.15,206.5c1.43-5.03,2.6-8.62,3.39-12.3.22-1-.36-2.59-1.13-3.33-12.02-11.5-26.06-20.43-41.85-24.78-22.91-6.32-46.76-7.87-70.48-6.85-23.63,1.02-47.32,2.61-70.77,5.64-23.58,3.05-47.09,7.29-70.25,12.64-22.25,5.14-44.09,12.16-66,18.7-35.4,10.56-69.76,23.97-103.06,39.84-36.55,17.41-72.47,36.14-108.89,53.84-32.55,15.83-66.25,29.09-100.76,39.85-28.04,8.75-56.65,15.87-85.27,22.53-18.7,4.35-37.89,6.63-56.88,9.74-6.03.99-12.12,1.64-17.98,2.42v7.77c1.16.07,2.05.27,2.9.15,19.99-2.8,40.17-4.66,59.91-8.69,25.95-5.29,51.81-11.4,77.25-18.75,50.45-14.57,99.33-33.5,146.29-57.08,40.91-20.54,81.06-42.7,123.97-58.93,28.18-10.65,56.5-21.12,85.3-29.89,39.37-11.99,79.48-21.31,120.52-25.72,20.8-2.24,41.66-4.41,62.55-5.12,16.35-.55,32.84.59,49.15,2.14,11.81,1.12,23.69,2.74,34.37,9.22,10.92,6.62,20.36,14.51,27.72,26.93v.03Zm-235.03-201.56h-317.95v19.96h317.95v-19.96Zm-.35,24.36h-317.45v19.97h317.45v-19.97Zm-380.55,12.22c1,.08,1.58.27,2.06.13,18.07-5.05,36.14-10.08,54.16-15.3,1.18-.34,2.73-2.07,2.79-3.22.29-5.72.13-11.47.13-17.2-1.26-.09-1.85-.3-2.33-.15-18.06,5.82-36.13,11.63-54.13,17.62-1.15.38-2.49,2.21-2.56,3.43-.29,4.87-.12,9.77-.12,14.68h0Zm0,18.56c2.55-1.19,4.29-2.05,6.07-2.82,8.52-3.66,16.36-8.92,26.55-7.88,8.6.88,17.36.18,26.23.18v-19.94c-18.69,5.24-36.96,10.38-55.24,15.47-2.61.73-3.95,2.03-3.67,4.99.28,3.01.06,6.06.06,10h0Zm311.1,97.22c14.75-4.14,28.94-8.1,43.1-12.18.92-.26,1.55-1.51,2.31-2.3-1.1-.6-2.2-1.7-3.31-1.72-8.74-.15-17.48-.09-26.22-.09h-15.87v16.29h-.01Z"/>
  <path d="m1132.26,189.9h-20.87v-40.57h20.87v40.57Zm-4.08-3.46v-33.22h-12.92v33.22h12.92Z"/>
  <path d="m923.51,149.24h20.75v40.6h-20.75v-40.6h0Zm3.36,3.92v32.89h13.45v-32.89h-13.45Z"/>
  <path d="m876.56,149.34h21.11v40.37h-21.11v-40.37Zm17.87,36.88v-21.35c0-8.39-4.2-12.3-12.59-11.74-.31.02-.61.33-1.01.56v32.54h13.61,0Z"/>
  <path d="m1085.41,149.28v40.49h-20.56v-40.49h20.56Zm-3.6,36.62v-32.38h-13.57v32.38h13.57Z"/>
  <path d="m1039.06,189.81h-21.12v-40.34h21.12v40.34Zm-17.73-36.58v32.93h14.28v-32.93h-14.28Z"/>
  <path d="m971.65,149.21h20.69v40.43h-20.69v-40.43h0Zm3.4,36.81h13.75c0-10.24.08-20.05-.12-29.85-.02-1.08-1.59-2.94-2.59-3.05-3.55-.37-7.17-.15-11.04-.15v33.04h0Z"/>
  <path d="m830.15,189.66v-40.37h20.9v40.37h-20.9Zm17.02-3.35v-33h-13.35v33h13.35Z"/>
  <path d="m804.39,189.92h-20.4v-40.58h20.4v40.58Zm-3.84-3.56v-33.03h-13.21v33.03h13.21Z"/>
  <path d="m783.96,275.47c0,15.06.05,29.3-.09,43.53-.01,1.3-1.01,3.34-2.07,3.77-10.71,4.38-21.53,8.5-32.99,12.95,0-13.74-.04-26.82.08-39.89,0-1.03.93-2.52,1.84-3.01,10.86-5.78,21.79-11.41,33.22-17.34h0Zm-3.42,5.85c-9.23,4.91-17.51,9.26-25.7,13.77-.85.47-1.63,1.92-1.64,2.92-.12,10.34-.07,20.68-.07,31.91,9.24-3.53,17.82-6.73,26.3-10.16.71-.29,1.07-2.17,1.07-3.32.08-11.28.05-22.55.05-35.12h0Z"/>
  <path d="m693.87,320.46c0,11.94.14,23.04-.17,34.13-.04,1.49-2.1,3.6-3.71,4.27-10.02,4.17-20.17,8-31.34,12.36,0-7.15.72-13.84-.16-20.32-1.41-10.37,1.86-16.42,12.3-19.62,7.71-2.36,14.77-6.83,23.09-10.83h-.01Zm-3.98,5.95c-9.36,4.51-17.79,8.52-26.16,12.67-.74.37-1.49,1.57-1.5,2.4-.11,7.9-.07,15.81-.07,24.47,9.04-3.59,17.24-6.8,25.39-10.16.96-.4,2.23-1.61,2.24-2.47.17-8.64.1-17.29.1-26.91Z"/>
  <path d="m738.64,339.9c-11.5,4.47-22.95,8.91-34.81,13.52,0-12.2-.05-23.87.08-35.53.01-1.17.89-2.94,1.87-3.41,10.73-5.22,21.57-10.25,32.86-15.56v40.98Zm-31.39,8.19c9.13-3.53,17.69-6.79,26.18-10.22.93-.38,2.04-1.79,2.05-2.74.15-9.92.09-19.85.09-30.76-9.47,4.53-18.09,8.6-26.62,12.85-.84.42-1.62,1.92-1.63,2.92-.13,9.07-.07,18.13-.07,27.96h0Z"/>
  <path d="m819.28,222.65h52.2v27.98h-52.2v-27.98Zm3.48,4.03v20.56h45.23v-20.56h-45.23Z"/>
  <path d="m1020.82,222.83v27.73h-52.23v-27.73h52.23Zm-3.45,24.47v-20.6h-44.6v20.6h44.6Z"/>
  <path d="m946.86,250.74h-52.05v-27.93h52.05v27.93h0Zm-48.84-3.6h45.51v-20.38h-45.51v20.38Z"/>
</svg>