<?xml version="1.0" encoding="utf-8"?>
<!-- Generator: Adobe Illustrator 27.5.0, SVG Export Plug-In . SVG Version: 6.00 Build 0)  -->
<svg version="1.1" id="Layer_1" xmlns="http://www.w3.org/2000/svg" xmlns:xlink="http://www.w3.org/1999/xlink" x="0px" y="0px"
	 viewBox="0 0 1920 1080" style="enable-background:new 0 0 1920 1080;" xml:space="preserve">
<style type="text/css">
	.st0{fill:#4E0707;}
</style>
<path class="st0" d="M723.81,947.49c-1.59,0.1-3.18,0.28-4.77,0.28c-41.25,0.02-82.51,0.03-123.76-0.04c-1.77,0-3.53-0.73-5.3-1.12
	c0.12-0.67,0.25-1.33,0.37-2c1.59-0.09,3.18-0.27,4.78-0.27c41.25-0.02,82.51-0.03,123.76,0.04c1.78,0,3.57,0.73,5.35,1.11
	C724.1,946.16,723.95,946.83,723.81,947.49z"/>
<path class="st0" d="M1298.85,946.59c-1.76,0.4-3.51,1.14-5.27,1.15c-32.16,0.07-64.32,0.05-96.48,0.05c-10.94,0-21.87,0-32.81,0
	c-0.15-0.64-0.3-1.27-0.44-1.91c1.98-0.51,3.96-1.47,5.94-1.48c39.29-0.09,78.57-0.06,117.86-0.06c3.6,0,7.2,0,10.8,0
	C1298.58,945.09,1298.72,945.84,1298.85,946.59z"/>
<path d="M161.49,829.89c-1.93-2.61-3.28-3.88-3.97-5.44c-23.62-53.72-47.17-107.46-70.74-161.21
	c-13.31-30.35-26.76-60.64-39.85-91.08c-7.27-16.9-18.68-27.85-37.89-28.96c-0.91-0.05-1.76-1.23-2.06-2.92c29.87,0,59.75,0,89.62,0
	c0.17,0.4,0.34,0.8,0.51,1.2c-1.06,0.6-2.1,1.72-3.17,1.74c-14.61,0.27-20.27,13.45-15.39,25.63
	c27.71,69.19,55.26,138.45,82.88,207.68c0.4,1,1.01,1.91,2.08,3.88c2.38-5.39,4.53-10.02,6.5-14.74
	c31.2-74.66,62.3-149.36,93.62-223.96c9.17-21.85,20.73-42.3,36.53-60.27c17.86-20.31,40.04-32.87,66.41-37.71
	c10.47-1.92,21.31-1.89,31.99-2.56c0.94-0.06,1.97,1.3,2.96,2c-1,0.49-1.97,1.32-3,1.41c-34.49,3.12-61.61,18.49-81.45,47.21
	c-13.94,20.17-24.1,42.19-34.22,64.31c-34.06,74.48-68.27,148.89-102.15,223.45c-6.49,14.29-11.75,29.15-17.53,43.76
	C162.58,824.79,162.36,826.42,161.49,829.89z"/>
<path d="M1403.36,770.55c-1.32,3.61-2.27,7.42-4.03,10.8c-10.76,20.64-30.26,29.13-52.62,27.59c-16.3-1.12-31.56-5.26-44.63-15.19
	c-19.05-14.48-29.51-33.93-32.12-57.77c-3.02-27.63,3.39-52.68,20.3-74.75c16.2-21.15,38.22-33.6,63.94-38.66
	c31.34-6.17,61.92-3.33,90.32,12.68c30.23,17.04,48.73,42.84,52.31,77.25c6.27,60.32-30.39,102.39-83.51,113.58
	c-0.98,0.21-1.89,0.75-3.44,1.39c15.86,4.22,31.05,8.06,46.13,12.31c27.99,7.9,55.8,16.49,83.91,23.94
	c24.35,6.45,49.35,9.45,74.54,8.11c21.93-1.16,43.79-3.8,63.74-14.13c5.36-2.77,10.21-6.52,15.29-9.81c0.35,0.41,0.7,0.81,1.05,1.22
	c-5.08,4.45-9.8,9.42-15.3,13.27c-18.01,12.58-38.41,19.25-59.91,22.84c-41.27,6.9-80.28-1.42-118.64-16.5
	c-33.65-13.23-67.81-25.17-101.79-37.52c-4.9-1.78-10.12-2.67-15.15-4.1c-1.1-0.31-2.05-1.16-3.89-2.24
	c9.89-1.17,18.52-1.8,27.01-3.27c34.85-6.03,61.91-34.57,67.34-69.67c3.78-24.43,3.11-48.24-7.89-70.76
	c-13.42-27.5-34.34-46.36-65.19-51.94c-48.48-8.76-96.77,17.84-107.99,70.53c-5.61,26.33-3.3,51.72,12.11,74.67
	c18.9,28.14,54.97,35.33,81.2,16.31c3.47-2.51,6.42-5.96,8.99-9.43c2.51-3.39,4.23-7.38,6.3-11.1
	C1402.29,770.3,1402.82,770.42,1403.36,770.55z"/>
<path d="M597.73,788.62c0-1.9,0-3.8,0-5.69c0-44.56,0.01-89.11,0-133.67c0-14.59-5.81-20.7-20.45-21.63
	c-0.79-0.05-1.57-0.38-2.25-1.61c18.88,0,37.77,0,56.65,0c0.04,0.39,0.08,0.78,0.12,1.17c-1.45,0.16-2.9,0.42-4.36,0.45
	c-10.61,0.26-17.53,7.33-17.53,18.05c-0.01,51.31-0.05,102.63,0.12,153.94c0.01,2.77,1.13,6.08,2.88,8.21
	c12.25,14.95,24.21,30.21,39.9,41.9c12.9,9.61,27.23,15.04,43.5,14.58c2.51-0.07,5.02-0.57,7.53-0.74c0.32-0.02,0.7,0.78,1.48,1.71
	c-10.69,3.44-21.22,5.58-32.19,4.18c-28.3-3.61-48.13-21.12-66.3-40.99c-26.6-29.1-52.96-58.42-79.37-87.69
	c-21.76-24.11-43.44-48.29-65.17-72.43c-1.81-2.01-3.73-3.91-6.97-5.62c0,1.83,0,3.67,0,5.5c0,44.01-0.01,88.02,0.01,132.03
	c0,12.56,6.66,19.48,19.3,20.18c1.18,0.07,2.36,0.34,3.48,1.59c-19.22,0-38.44,0-57.65,0c-0.04-0.37-0.08-0.74-0.12-1.11
	c1.44-0.16,2.88-0.4,4.32-0.48c11.37-0.68,18.48-7.99,18.51-19.35c0.06-27.21,0.02-54.42,0.02-81.63c0-21.37-0.13-42.73,0.09-64.1
	c0.05-5.17-1.04-9.33-4.33-13.49c-10.77-13.62-21.51-27.21-35.84-37.37c-13.45-9.54-28.11-13.95-44.64-10.18
	c-1.18,0.27-2.51-0.13-3.78-0.81c10.88-5.51,22.28-7.35,34.24-6c25.27,2.84,42.3,19.19,58.28,36.49
	c29.47,31.91,58.3,64.4,87.39,96.66c19.43,21.56,38.85,43.12,58.2,64.75c1.17,1.31,1.74,3.16,2.59,4.75
	C596.15,789.65,596.94,789.13,597.73,788.62z"/>
<path d="M718.89,690.28c-0.51-1.36-1.39-2.69-1.48-4.07c-1.99-29.29,15.77-54.48,44.45-61.75c54.41-13.78,108.06,14.14,120.69,72.79
	c6.47,30.06,2.81,59-15.99,84.58c-16.44,22.36-38.69,36.3-65.68,41.61c-27.54,5.42-55.05,4.49-81.24-7.04
	c-32.97-14.52-55.04-38.82-61.03-74.78c-6.09-36.58,1.56-69.91,30.37-95.8c6.56-5.9,14.35-10.43,21.57-15.59
	c0.45,0.54,0.9,1.07,1.35,1.61c-0.47,0.79-0.74,1.85-1.43,2.35c-16.59,12.09-24.29,29.37-28.6,48.65
	c-5.99,26.79-6.25,53.51,3.89,79.28c12.54,31.88,36.31,50.4,70.48,55.18c24.45,3.42,47.53-0.17,68.11-14.42
	c21.8-15.1,33.77-36.34,37.88-62.38c3.32-21.05,2.19-41.69-5.68-61.54c-9.3-23.46-24.56-41.29-50.21-47.36
	c-24.97-5.91-48.66-2.93-68.67,14.37C724.64,657.22,718.7,672.07,718.89,690.28z"/>
<path d="M1530.31,625.88c18.83,0,37.67,0,56.5,0c0.05,0.45,0.1,0.9,0.15,1.36c-1.63,0.14-3.25,0.36-4.88,0.4
	c-8.47,0.21-14.6,5.79-14.64,14.35c-0.14,37.26-0.58,74.53,0.2,111.78c0.43,20.63,7.31,39.26,24.43,52.57
	c12.23,9.51,26.25,12.4,41.51,11.32c14.47-1.02,27.36-5.6,38.03-15.47c13.28-12.3,19.29-28.1,19.5-45.8
	c0.4-34.7-0.22-69.41,0.29-104.11c0.25-17.05,3.88-33.61,14.38-47.69c12.45-16.7,29.5-25.4,50.1-27.38
	c5.03-0.48,10.06-0.86,15.09-1.29c0.11,0.58,0.23,1.16,0.34,1.75c-2.55,0.57-5.07,1.49-7.64,1.64
	c-29.7,1.74-51.43,23.12-56.92,52.69c-1.75,9.41-2.39,19.12-2.49,28.71c-0.31,29.4,0,58.81-0.17,88.22
	c-0.07,11.65-0.84,23.32-5.53,34.21c-10.33,24.02-28.73,37.85-54.43,41.78c-19.97,3.06-39.62,1.9-57.8-7.92
	c-20.35-11-32.55-27.96-35.5-51.12c-0.66-5.22-1.01-10.51-1.02-15.76c-0.09-34.89-0.04-69.77-0.05-104.66
	c0-13.07-3.96-17.19-17.04-17.83c-0.84-0.04-1.68-0.31-2.51-0.48C1530.26,626.73,1530.28,626.3,1530.31,625.88z"/>
<path d="M1146.57,720.78c18.15,0,35.86,0.16,53.56-0.08c7.35-0.1,13.05-6.08,13.97-13.63c0.19-1.54,0.28-3.08,1.62-4.59
	c0,14.75,0,29.5,0,44.25c-0.32,0.07-0.65,0.14-0.97,0.2c-0.2-1.38-0.47-2.76-0.6-4.15c-0.7-7.52-5.73-13.92-12.74-14.08
	c-18.21-0.43-36.43-0.14-54.92-0.14c0,28.51,0,56.55,0,84.67c0.52,0.22,1,0.59,1.48,0.59c20.64,0.03,41.29,0.26,61.93-0.03
	c21.98-0.31,36.14-12.15,44.82-31.56c0.89-1.98,1.99-3.86,2.99-5.79c0.48,0.22,0.96,0.44,1.44,0.66c-0.99,2.78-1.97,5.56-2.96,8.34
	c-3.86,10.9-7.61,21.85-11.7,32.67c-0.57,1.51-2.78,3.44-4.25,3.44c-43.66,0.18-87.33,0.15-130.99,0.12c-0.79,0-1.59-0.31-3.85-0.79
	c2.03-0.85,2.7-1.34,3.4-1.39c12.81-0.93,19.63-8.14,19.66-21.17c0.06-34.69,0.02-69.38,0.02-104.07c0-15.34,0.01-30.67,0-46.01
	c-0.01-14.14-5.29-19.99-19.53-21.69c-0.75-0.09-1.46-0.51-2.1-1.26c29.82-2.72,59.97,2.64,89.31-5.25c0,11.47,0,22.7,0,33.92
	c-0.42,0.02-0.84,0.05-1.26,0.07c-0.15-1.47-0.38-2.93-0.42-4.41c-0.25-10.05-6.75-16.49-16.9-16.55c-10.21-0.06-20.42-0.01-31-0.01
	C1146.57,662.3,1146.57,691.22,1146.57,720.78z"/>
<path d="M1755.13,624.78c29.63-2.13,59.66,3.1,89.29-4.76c0,11.45,0,22.68,0,33.92c-0.46,0.05-0.92,0.1-1.38,0.15
	c-0.15-1.77-0.38-3.53-0.43-5.3c-0.23-8.68-6.91-15.57-15.55-15.67c-10.73-0.12-21.46-0.03-32.45-0.03c0,29.29,0,58.08,0,87.7
	c1.89,0,3.81,0,5.73,0c14.62,0,29.25-0.43,43.84,0.14c10.52,0.41,18.52-6.36,18.16-16.36c-0.03-0.73,0.46-1.47,1.66-2.06
	c0,14.73,0,29.47,0,44.2c-0.34,0.08-0.68,0.17-1.03,0.25c-0.24-1.49-0.54-2.98-0.7-4.48c-0.81-7.82-6.1-13.75-13.57-13.87
	c-17.87-0.28-35.75-0.09-54-0.09c0,28.5,0,56.67,0,85.4c8.17,0,16.16,0.11,24.14-0.02c14.95-0.25,29.9-0.48,44.84-1.01
	c15.15-0.54,25.92-8.52,33.68-20.97c3.09-4.95,5.7-10.21,8.53-15.33c0.47,0.2,0.94,0.4,1.41,0.6c-5.26,14.74-10.51,29.49-15.76,44.2
	c-45.64,0-91.04,0-136.44,0c-0.08-0.28-0.16-0.55-0.23-0.83c0.79-0.36,1.55-0.99,2.37-1.05c11.98-0.91,19.27-7.95,19.31-19.84
	c0.15-51.67,0.13-103.34,0.01-155.01c-0.03-10.14-6.82-16.72-17.58-18.02c-1.32-0.16-2.64-0.34-3.97-0.52
	C1755.05,625.67,1755.09,625.23,1755.13,624.78z"/>
<path d="M1083.04,619.99c0,11.85,0,23.21,0,34.56c-0.42,0.08-0.84,0.15-1.25,0.23c-0.31-1.73-0.81-3.46-0.9-5.2
	c-0.54-10.44-9.42-17.01-18.44-16.69c-17.13,0.61-34.29,0.18-52.17,0.18c0,2.53,0,4.65,0,6.77c0,52.59,0,105.19,0,157.78
	c0,15.09,5.19,20.94,20.28,22.9c0.49,0.06,0.94,0.42,1.38,1.48c-20.31,0-40.63,0-60.94,0c-0.06-0.28-0.12-0.57-0.18-0.85
	c2.65-0.56,5.32-1.05,7.96-1.69c8.02-1.95,13.85-9.08,13.86-17.38c0.05-55.52,0.02-111.03,0-166.55c0-0.54-0.12-1.07-0.24-2.03
	c-1.32-0.14-2.7-0.41-4.08-0.41c-20.28-0.01-40.57-0.06-60.85,0.08c-14.31,0.1-27.83,9.38-31.2,22.76
	c-1.41,5.6,0.22,12.01,0.72,18.03c0.17,2.01,1.13,3.96,1.91,6.54c-6.67-4.1-11.47-15.72-10.14-23.22
	c3.26-18.42,17.39-31.29,36.52-31.72c32.14-0.72,64.29-0.62,96.43-0.94C1042.21,624.42,1062.84,626.08,1083.04,619.99z"/>
<path d="M355.47,631.68c-14.45,1.29-28.16,1.69-41.57,3.91c-16.23,2.69-22.88,18.06-14.13,30.62c4,5.75,10.19,7.12,16.7,7.78
	c-3.92,3.23-14.4,2.39-19.89-1.54c-12.95-9.26-12.91-29.95,0.82-37.98c6.7-3.91,14.68-6.65,22.38-7.63
	c15.87-2.02,31.95-2.35,47.92-3.68c7.4-0.62,14.72-2.01,22.1-2.95c1.79-0.23,3.62-0.03,5.44-0.03c0.02,0.46,0.04,0.91,0.07,1.37
	c-1.1,0.28-2.2,0.53-3.29,0.83c-12.73,3.56-18.76,10.88-18.81,24.6c-0.19,51.31-0.17,102.63-0.01,153.94
	c0.03,10.73,6.92,17.83,17.69,19.46c1.32,0.2,2.64,0.37,3.87,1.73c-20.31,0-40.62,0-60.93,0c-0.08-0.24-0.17-0.48-0.25-0.72
	c0.97-0.32,1.92-0.88,2.9-0.93c12.11-0.58,19.29-10.44,19.2-21.32c-0.46-53.32-0.21-106.64-0.21-159.96
	C355.47,637.04,355.47,634.88,355.47,631.68z"/>
<path class="st0" d="M985.6,951.41c7.17,2.66,12.05,6.37,12.46,13.77c0.58,10.55-5.82,17.8-17.49,18.45
	c-11.43,0.63-22.92,0.14-34.77,0.14c0-21.18,0-42.01,0-63.29c11.21,0,22.33-0.61,33.33,0.22c7.04,0.54,13.56,4.18,15.29,11.89
	C996.16,940.28,993.96,947.01,985.6,951.41z M951.24,953.68c0,9.19,0,17.12,0,26.04c10.68-0.48,21.04-0.57,31.31-1.56
	c6.05-0.59,9.76-5.66,9.82-11.35c0.06-5.67-3.62-10.74-9.71-11.37C972.39,954.4,962.03,954.24,951.24,953.68z M951.27,924.52
	c0,9.15,0,17.09,0,25.95c9.77-0.59,19.22-0.68,28.51-1.89c6.08-0.79,9.57-6.16,9.24-11.74c-0.34-5.72-4.19-10.42-10.21-10.98
	C969.81,925.03,960.73,924.94,951.27,924.52z"/>
<path class="st0" d="M867.56,918.83c3.08,1.86,5.34,2.55,6.57,4.08c13.01,16.1,25.85,32.33,39.95,48.38c0-16.73,0-33.47,0-50.56
	c2.49-0.15,4.01-0.24,5.84-0.36c0,21.29,0,42.21,0,64.98c-2.98-2-5.43-2.95-6.86-4.72c-12.66-15.71-25.14-31.57-37.68-47.37
	c-0.41-0.52-0.96-0.92-2.23-2.1c0,17.99,0,35.03,0,52.28c-2.94,0.23-5.64,1.64-5.62-2.86C867.59,960.7,867.56,940.82,867.56,918.83z
	"/>
<path class="st0" d="M1087.98,963.7c0,6.65,0,13.01,0,19.78c-1.81,0.09-3.32,0.16-5.16,0.25c0-21.1,0-41.84,0-63.9
	c11.39,0.58,22.84,0.43,34.05,1.99c8.29,1.16,14.34,9.16,15,16.7c0.93,10.68-2.61,17.62-11.29,22.08c-0.79,0.41-1.6,0.78-3.09,1.51
	c5.11,7.19,10.05,14.14,15.05,21.17c-4.15,1.45-6.9,0.16-8.88-3.27c-0.63-1.09-1.79-1.93-2.23-3.07
	C1115.25,960.82,1102.11,961.91,1087.98,963.7z M1088.23,958.63c6.77,0,12.95,0.08,19.12-0.05c1.97-0.04,3.93-0.58,5.88-0.99
	c7.79-1.64,12.42-7.02,12.73-14.7c0.32-8.25-3.12-14.51-10.89-15.9c-8.74-1.56-17.82-1.27-26.82-1.78
	C1088.23,937.02,1088.23,947.53,1088.23,958.63z"/>
<path class="st0" d="M747.75,905.63c4.87-1.75,6.76,0.05,8.53,4.14c8.88,20.56,18.16,40.96,27.32,61.4
	c0.59,1.31,1.44,2.49,2.51,4.32c9.47-21.29,18.63-42.09,28-62.79c1.68-3.7,2.03-9.61,9.44-7.21c-4.31,9.77-8.59,19.58-12.95,29.36
	c-6.55,14.69-13.34,29.28-19.63,44.08c-1.75,4.12-3.86,5.84-8.56,4.44C770.95,957.67,759.36,931.67,747.75,905.63z"/>
<path class="st0" d="M1004.85,983.32c5.71-12.32,11.41-24.59,17.08-36.89c3.55-7.71,6.93-15.49,10.65-23.12
	c0.64-1.31,2.51-2.65,3.92-2.78c1.4-0.14,3.75,0.85,4.3,2c9.64,20.2,19.06,40.49,28.55,60.81c-4.42,1.34-7.17,0.08-8.05-4.06
	c-2.4-11.29-9.41-14.74-20.41-13.18c-6.08,0.86-12.41-0.07-18.59,0.3c-1.69,0.1-3.83,1.61-4.79,3.1c-1.94,3.02-3.53,6.35-4.67,9.75
	C1011.5,983.26,1009.29,984.81,1004.85,983.32z M1021.26,961.08c10.79,0,20.79,0,31.51,0c-5.36-11.74-10.39-22.76-15.77-34.52
	C1031.58,938.45,1026.56,949.46,1021.26,961.08z"/>
<path class="st0" d="M836.14,920.56c1.75,0,3.15,0,4.83,0c0,21.05,0,41.9,0,62.98c-1.64,0-3.04,0-4.83,0
	C836.14,962.73,836.14,941.89,836.14,920.56z"/>
<path d="M496,605.9c13.45-6.23,26.79-12.69,40.35-18.66c65.58-28.88,133.56-50.57,203.59-65.5c32.09-6.84,64.56-12.12,97.05-16.75
	c27.9-3.98,56.02-7.08,84.14-8.71c40.8-2.36,81.7-3.81,122.57-4.18c28.45-0.26,56.95,1.45,85.38,3.18
	c24.35,1.48,48.71,3.59,72.93,6.55c29.74,3.64,59.44,7.85,88.96,12.94c27.66,4.77,55.07,11.01,82.59,16.63
	c0.49,0.1,0.92,0.5,1.79,0.99c-0.98,1.17-1.77,2.28-2.73,3.23c-10.86,10.84-21.79,21.61-32.57,32.52c-2.03,2.06-3.65,2.55-6.62,1.7
	c-40.33-11.47-81.13-20.9-122.7-26.55c-27.73-3.77-55.56-6.95-83.4-9.86c-54.06-5.64-108.32-5.19-162.54-4.03
	c-30.07,0.64-60.14,2.84-90.12,5.4c-29.17,2.5-58.32,5.71-87.31,9.81c-32.71,4.62-65.29,10.18-97.81,16.01
	c-62.3,11.17-123.78,25.92-184.44,44.04c-2.87,0.86-5.77,1.65-8.65,2.47C496.31,606.71,496.16,606.3,496,605.9z"/>
<path d="M563.27,567.02c0-18.37-0.08-36.75,0.16-55.12c0.02-1.38,2.13-3.63,3.61-3.96c25.93-5.75,51.91-11.26,77.88-16.82
	c3.46-0.74,4.74-2.47,4.72-6.36c-0.21-30.14-0.04-60.27-0.2-90.41c-0.02-3.46,1.06-5.23,4.08-6.72
	c26.53-13.12,52.98-26.39,79.51-39.51c2.58-1.28,3.86-2.64,3.76-5.73c-0.25-7.46-0.08-14.93-0.08-23.04c-12.24,0-24.19,0-36.55,0
	c-0.2-1.97-0.45-3.34-0.46-4.72c-0.02-21.74,0.06-43.47-0.09-65.21c-0.02-3.4,0.93-5,4.21-6.4c9.67-4.1,19.03-8.93,28.65-13.14
	c3.32-1.46,4.42-3.25,4.33-6.88c-0.28-10.59-0.03-21.19-0.15-31.78c-0.03-2.72,0.59-4.11,3.52-5.05
	c20.26-6.56,40.44-13.4,60.67-20.07c1.33-0.44,2.89-0.22,4.35-0.23c15.7-0.01,31.41-0.01,47.56-0.01
	c1.39-11.02,2.72-21.78,4.1-32.53c1.62-12.6,3.36-25.18,4.89-37.79c0.38-3.09,2.18-3.63,4.77-4.67
	c20.42-8.24,41.71-11.05,63.52-10.56c14.06,0.31,27.76,2.91,40.79,8.25c2.28,0.93,4.54,3.15,5.7,5.36
	c11.86,22.63,23.61,45.33,35.05,68.18c1.68,3.36,3.6,3.81,6.74,3.81c33.63-0.07,67.26-0.04,100.89-0.04c1.99,0,3.98,0,6.61,0
	c0,16.42,0,32.56,0,49.14c12.98,0,25.33,0,38.1,0c0,26.45,0,52.43,0,78.89c-12.37,0-24.71,0-37.49,0c0,3.8,0,7.15,0,11.33
	c5.25-0.89,10.45-1.86,15.69-2.65c16.65-2.51,33.3-5.09,49.98-7.38c27.19-3.74,54.59-4.34,81.91-3.01
	c21.15,1.02,42.25,3.54,62.3,11.46c17.33,6.84,24.59,20.57,26.51,37.89c0.8,7.18,2.36,15.03,0.36,21.6
	c-4.77,15.66-10.2,31.39-17.64,45.92c-11.71,22.85-25.59,44.58-37.95,67.12c-5.8,10.57-10.18,21.93-15.33,33.22
	c-0.09-0.02-1.12-0.29-2.1-0.54c0-0.5-0.07-0.84,0.01-1.13c7.69-27.69,25.1-50.34,38.59-75.05c8.82-16.15,16.05-33.17,24.01-49.79
	c2.1-4.39,1.25-8.18-1.43-12.19c-9.18-13.74-21.88-23.01-37.41-27.65c-8.76-2.62-18.23-3.4-27.44-3.89
	c-16.18-0.86-32.43-1.55-48.6-1.04c-15.97,0.51-31.97,2.04-47.82,4.14c-21.56,2.85-43.12,6.06-64.46,10.26
	c-17.93,3.53-35.74,8.04-53.24,13.3c-23.07,6.93-45.97,14.52-68.62,22.71c-39.78,14.39-78.2,31.94-115.57,51.78
	c-32.21,17.1-64.89,33.21-99.14,45.84c-26.17,9.65-52.22,19.96-79.01,27.54c-30.94,8.75-62.54,15.26-94.03,21.88
	c-14.87,3.12-30.15,4.35-45.27,6.13c-3.25,0.38-4.47,1.29-4.34,4.61c0.22,5.47,0.18,10.96-0.01,16.43
	c-0.06,1.66-0.98,3.29-1.51,4.94C564.34,567.45,563.81,567.23,563.27,567.02z M1160.18,219.04c-131.79,0-263.21,0-394.58,0
	c0,23.55,0,46.64,0,70.02c131.64,0,262.92,0,394.58,0C1160.18,265.58,1160.18,242.35,1160.18,219.04z M566.71,525.88
	c11.22-1.37,21.87-2.5,32.46-3.98c33.14-4.64,65.59-12.38,97.75-21.52c65.04-18.5,126.69-45.11,186.14-77.07
	c43.15-23.19,88.06-42.51,134.26-58.59c47.77-16.63,96.57-29.47,146.72-37.01c27.24-4.1,54.57-7,82.06-7.1
	c17.45-0.06,34.98,1.35,52.33,3.33c9.73,1.11,19.64,3.65,28.63,7.5c11.2,4.8,21.53,11.63,31.95,17.42
	c1.62-19.63-7.81-37.49-28.94-43.8c-17.68-5.28-35.73-7.61-54.09-9.04c-25.07-1.96-50.03-0.75-74.88,1.73
	c-21.64,2.16-43.35,5.08-64.56,9.76c-31.47,6.95-62.89,14.6-93.67,24.12c-27.7,8.56-54.87,19.18-81.61,30.47
	c-26.04,10.99-51.33,23.82-76.8,36.13c-27.95,13.51-55.46,27.95-83.65,40.93c-42.27,19.45-86.03,35.12-130.62,48.4
	c-16.53,4.92-33.22,9.38-50,13.34c-17.62,4.16-35.45,7.48-53.49,11.23C566.71,516.19,566.71,520.5,566.71,525.88z M652.69,488.28
	c1.81-0.19,2.91-0.15,3.91-0.45c46.86-13.63,92.71-30.03,137.48-49.47c3.42-1.49,4.79-3.34,4.77-7.31
	c-0.18-43.63-0.11-87.26-0.12-130.89c0-1.92-0.2-3.84-0.32-6.17c-12.42,0-24.23,0-36.52,0c0-24.61,0-48.78,0-73.11
	c-1.03,0.1-1.61,0-2.06,0.21c-17.79,8.24-35.6,16.44-53.27,24.92c-1.4,0.67-2.57,3.32-2.61,5.08c-0.23,11.13-0.12,22.27-0.12,33.4
	c0,9.99,0,19.98,0,30.73c12.63,0,24.73,0,37.17,0c0,9.86-0.23,18.98,0.11,28.08c0.14,3.71-1.18,5.45-4.35,7.01
	c-26.53,13.06-52.96,26.33-79.49,39.4c-3.35,1.65-4.8,3.57-4.68,7.51c0.32,10.94,0.11,21.9,0.11,32.86
	C652.69,449.25,652.69,468.4,652.69,488.28z M802.71,293.43c0,46.95,0,93.6,0,140.94c8.37-3.86,16.51-7.37,24.42-11.32
	c33.3-16.64,66.36-33.78,99.84-50.05c37.78-18.37,77.02-33.17,117.05-45.89c3.22-1.02,4.34-2.38,4.21-5.67
	c-0.24-6.12-0.07-12.26-0.07-18.28c18.07,0,35.35,0,52.59,0c0.23,2.65,0.43,4.93,0.67,7.67c6.29-1.32,12.14-2.43,17.9-3.89
	c1.03-0.26,2.32-1.89,2.42-2.99c0.32-3.38,0.11-6.82,0.11-10.52C1015.16,293.43,909.09,293.43,802.71,293.43z M1008.8,165.59
	c-0.34-1-0.48-1.68-0.78-2.27c-10.78-21-22.05-41.77-32.13-63.1c-3.92-8.29-10.57-10.21-17.86-12.21
	c-14.91-4.09-30.05-4.76-45.46-3.54c-15.17,1.19-29.89,3.87-43.93,9.75c-1.54,0.64-3.25,2.68-3.5,4.29
	c-1.48,9.5-2.56,19.06-3.77,28.61c-1.62,12.74-3.23,25.48-4.88,38.47C907.34,165.59,957.86,165.59,1008.8,165.59z M1356.95,372.09
	c1.43-5.03,2.6-8.62,3.39-12.3c0.22-1-0.36-2.59-1.13-3.33c-12.02-11.5-26.06-20.43-41.85-24.78c-22.91-6.32-46.76-7.87-70.48-6.85
	c-23.63,1.02-47.32,2.61-70.77,5.64c-23.58,3.05-47.09,7.29-70.25,12.64c-22.25,5.14-44.09,12.16-66,18.7
	c-35.4,10.56-69.76,23.97-103.06,39.84c-36.55,17.41-72.47,36.14-108.89,53.84c-32.55,15.83-66.25,29.09-100.76,39.85
	c-28.04,8.75-56.65,15.87-85.27,22.53c-18.7,4.35-37.89,6.63-56.88,9.74c-6.03,0.99-12.12,1.64-17.98,2.42c0,2.89,0,5.21,0,7.77
	c1.16,0.07,2.05,0.27,2.9,0.15c19.99-2.8,40.17-4.66,59.91-8.69c25.95-5.29,51.81-11.4,77.25-18.75
	c50.45-14.57,99.33-33.5,146.29-57.08c40.91-20.54,81.06-42.7,123.97-58.93c28.18-10.65,56.5-21.12,85.3-29.89
	c39.37-11.99,79.48-21.31,120.52-25.72c20.8-2.24,41.66-4.41,62.55-5.12c16.35-0.55,32.84,0.59,49.15,2.14
	c11.81,1.12,23.69,2.74,34.37,9.22C1340.15,351.78,1349.6,359.67,1356.95,372.09z M1121.92,170.54c-106.31,0-212.12,0-317.95,0
	c0,6.86,0,13.34,0,19.96c106.14,0,211.94,0,317.95,0C1121.92,183.74,1121.92,177.39,1121.92,170.54z M1121.56,194.9
	c-106.25,0-211.94,0-317.45,0c0,6.98,0,13.46,0,19.97c106.01,0,211.58,0,317.45,0C1121.56,208.1,1121.56,201.61,1121.56,194.9z
	 M741.01,207.12c1,0.08,1.58,0.27,2.06,0.13c18.07-5.05,36.14-10.08,54.16-15.3c1.18-0.34,2.73-2.07,2.79-3.22
	c0.29-5.72,0.13-11.47,0.13-17.2c-1.26-0.09-1.85-0.3-2.33-0.15c-18.06,5.82-36.13,11.63-54.13,17.62
	c-1.15,0.38-2.49,2.21-2.56,3.43C740.84,197.32,741.01,202.22,741.01,207.12z M741,225.68c2.55-1.19,4.29-2.05,6.07-2.82
	c8.52-3.66,16.36-8.92,26.55-7.88c8.6,0.88,17.36,0.18,26.23,0.18c0-6.96,0-13.21,0-19.94c-18.69,5.24-36.96,10.38-55.24,15.47
	c-2.61,0.73-3.95,2.03-3.67,4.99C741.22,218.69,741,221.74,741,225.68z M1052.1,322.9c14.75-4.14,28.94-8.1,43.1-12.18
	c0.92-0.26,1.55-1.51,2.31-2.3c-1.1-0.6-2.2-1.7-3.31-1.72c-8.74-0.15-17.48-0.09-26.22-0.09c-5.22,0-10.45,0-15.87,0
	C1052.1,312.28,1052.1,317.23,1052.1,322.9z"/>
<path d="M1139.24,270.16c-7.07,0-13.76,0-20.87,0c0-13.51,0-26.86,0-40.57c6.82,0,13.64,0,20.87,0
	C1139.24,242.98,1139.24,256.31,1139.24,270.16z M1135.16,266.7c0-11.35,0-22.27,0-33.22c-4.61,0-8.71,0-12.92,0
	c0,11.23,0,22.13,0,33.22C1126.73,266.7,1130.69,266.7,1135.16,266.7z"/>
<path d="M930.49,229.5c7.09,0,13.76,0,20.75,0c0,13.63,0,26.99,0,40.6c-6.99,0-13.68,0-20.75,0
	C930.49,256.67,930.49,243.3,930.49,229.5z M933.86,233.41c0,11.21,0,21.84,0,32.89c4.59,0,9,0,13.45,0c0-11.13,0-21.91,0-32.89
	C942.78,233.41,938.65,233.41,933.86,233.41z"/>
<path d="M883.53,229.6c6.95,0,13.94,0,21.11,0c0,13.55,0,26.77,0,40.37c-7.02,0-13.84,0-21.11,0
	C883.53,256.67,883.53,243.32,883.53,229.6z M901.41,266.47c0-7.54,0-14.45,0-21.35c0-12.58,0-12.59-12.59-11.74
	c-0.31,0.02-0.61,0.33-1.01,0.56c0,10.77,0,21.57,0,32.54C892.34,266.47,896.46,266.47,901.41,266.47z"/>
<path d="M1092.39,229.54c0,13.7,0,26.94,0,40.49c-6.88,0-13.53,0-20.56,0c0-13.43,0-26.8,0-40.49
	C1078.54,229.54,1085.21,229.54,1092.39,229.54z M1088.79,266.16c0-11.13,0-21.76,0-32.38c-4.78,0-9.19,0-13.57,0
	c0,11.03,0,21.54,0,32.38C1079.79,266.16,1084.09,266.16,1088.79,266.16z"/>
<path d="M1046.04,270.06c-7.08,0-13.91,0-21.12,0c0-13.4,0-26.62,0-40.34c6.84,0,13.8,0,21.12,0
	C1046.04,242.97,1046.04,256.18,1046.04,270.06z M1028.3,233.48c0,11.35,0,22.01,0,32.93c5,0,9.62,0,14.28,0
	c0-11.23,0-22.03,0-32.93C1037.66,233.48,1033.16,233.48,1028.3,233.48z"/>
<path d="M978.63,229.47c7.04,0,13.71,0,20.69,0c0,13.46,0,26.73,0,40.43c-6.79,0-13.59,0-20.69,0
	C978.63,256.6,978.63,243.34,978.63,229.47z M982.03,266.28c4.5,0,8.92,0,13.75,0c0-10.24,0.08-20.05-0.12-29.85
	c-0.02-1.08-1.59-2.94-2.59-3.05c-3.55-0.37-7.17-0.15-11.04-0.15C982.03,244.53,982.03,255.19,982.03,266.28z"/>
<path d="M837.13,269.92c0-13.59,0-26.82,0-40.37c7.03,0,13.84,0,20.9,0c0,13.5,0,26.73,0,40.37
	C851.2,269.92,844.41,269.92,837.13,269.92z M854.16,266.57c0-11.24,0-22.17,0-33c-4.71,0-8.98,0-13.35,0c0,11.18,0,21.95,0,33
	C845.46,266.57,849.72,266.57,854.16,266.57z"/>
<path d="M811.37,270.17c-6.91,0-13.43,0-20.4,0c0-13.5,0-26.85,0-40.58c6.66,0,13.32,0,20.4,0
	C811.37,242.97,811.37,256.31,811.37,270.17z M807.53,266.62c0-11.5,0-22.31,0-33.03c-4.76,0-9.05,0-13.21,0
	c0,11.24,0,22.07,0,33.03C798.93,266.62,803.06,266.62,807.53,266.62z"/>
<path d="M790.94,355.73c0,15.06,0.05,29.3-0.09,43.53c-0.01,1.3-1.01,3.34-2.07,3.77c-10.71,4.38-21.53,8.5-32.99,12.95
	c0-13.74-0.04-26.82,0.08-39.89c0.01-1.03,0.93-2.52,1.84-3.01C768.57,367.29,779.51,361.67,790.94,355.73z M787.51,361.58
	c-9.23,4.91-17.51,9.26-25.7,13.77c-0.85,0.47-1.63,1.92-1.64,2.92c-0.12,10.34-0.07,20.68-0.07,31.91
	c9.24-3.53,17.82-6.73,26.3-10.16c0.71-0.29,1.07-2.17,1.07-3.32C787.54,385.42,787.51,374.15,787.51,361.58z"/>
<path d="M700.85,400.71c0,11.94,0.14,23.04-0.17,34.13c-0.04,1.49-2.1,3.6-3.71,4.27c-10.02,4.17-20.17,8-31.34,12.36
	c0-7.15,0.72-13.84-0.16-20.32c-1.41-10.37,1.86-16.42,12.3-19.62C685.46,409.18,692.52,404.71,700.85,400.71z M696.87,406.66
	c-9.36,4.51-17.79,8.52-26.16,12.67c-0.74,0.37-1.49,1.57-1.5,2.4c-0.11,7.9-0.07,15.81-0.07,24.47c9.04-3.59,17.24-6.8,25.39-10.16
	c0.96-0.4,2.23-1.61,2.24-2.47C696.93,424.94,696.87,416.29,696.87,406.66z"/>
<path d="M745.62,420.16c-11.5,4.47-22.95,8.91-34.81,13.52c0-12.2-0.05-23.87,0.08-35.53c0.01-1.17,0.89-2.94,1.87-3.41
	c10.73-5.22,21.57-10.25,32.86-15.56C745.62,393.07,745.62,406.31,745.62,420.16z M714.23,428.35c9.13-3.53,17.69-6.79,26.18-10.22
	c0.93-0.38,2.04-1.79,2.05-2.74c0.15-9.92,0.09-19.85,0.09-30.76c-9.47,4.53-18.09,8.6-26.62,12.85c-0.84,0.42-1.62,1.92-1.63,2.92
	C714.18,409.46,714.23,418.53,714.23,428.35z"/>
<path d="M826.26,297.91c17.63,0,34.73,0,52.2,0c0,9.36,0,18.51,0,27.98c-17.39,0-34.61,0-52.2,0
	C826.26,316.63,826.26,307.46,826.26,297.91z M829.74,301.94c0,7.27,0,13.9,0,20.56c15.32,0,30.2,0,45.23,0c0-7,0-13.65,0-20.56
	C859.75,301.94,844.86,301.94,829.74,301.94z"/>
<path d="M1027.79,298.09c0,9.25,0,18.29,0,27.73c-17.31,0-34.54,0-52.23,0c0-9.01,0-18.18,0-27.73
	C992.81,298.09,1010.17,298.09,1027.79,298.09z M1024.34,322.56c0-6.98,0-13.64,0-20.6c-14.97,0-29.78,0-44.6,0
	c0,7.09,0,13.75,0,20.6C994.74,322.56,1009.4,322.56,1024.34,322.56z"/>
<path d="M953.84,326c-17.4,0-34.48,0-52.05,0c0-9.25,0-18.41,0-27.93c17.12,0,34.37,0,52.05,0
	C953.84,307.07,953.84,316.24,953.84,326z M904.99,322.4c15.61,0,30.61,0,45.51,0c0-7.11,0-13.74,0-20.38c-15.41,0-30.4,0-45.51,0
	C904.99,309.03,904.99,315.56,904.99,322.4z"/>
</svg>
